#define cursor_width 8
#define cursor_height 8
#define cursor_x_hot 2
#define cursor_y_hot 0
static char cursor_bits[] = {
   0x04, 0x04, 0x0e, 0x0e, 0x1f, 0x1f, 0x00, 0x00};
